<?xml version="1.0" encoding="UTF-8" standalone="no"?><!DOCTYPE svg PUBLIC "-//W3C//DTD SVG 1.1//EN" "http://www.w3.org/Graphics/SVG/1.1/DTD/svg11.dtd"><svg width="100%" height="100%" viewBox="0 0 4445 3334" version="1.1" xmlns="http://www.w3.org/2000/svg" xmlns:xlink="http://www.w3.org/1999/xlink" xml:space="preserve" xmlns:serif="http://www.serif.com/" style="fill-rule:evenodd;clip-rule:evenodd;stroke-miterlimit:1.5;"><g><text x="1863.51px" y="454.735px" style="font-family:'MarcellusSC-Regular', 'Marcellus SC', sans-serif;font-size:111.111px;fill:#231f20;">M<tspan x="1978.85px 2040.53px 2096.19px 2156.19px 2225.74px 2256.07px 2325.95px 2393.92px 2429.46px 2544.8px 2593.46px 2649.12px 2718.68px 2790.99px 2859.46px " y="454.735px 454.735px 454.735px 454.735px 454.735px 454.735px 454.735px 454.735px 454.735px 454.735px 454.735px 454.735px 454.735px 454.735px 454.735px ">atching Methods</tspan></text><rect x="1788.23" y="315.835" width="1187.85" height="200" style="fill:none;stroke:#000;stroke-width:5.56px;"/></g><g><g transform="matrix(1,0,0,1,2118.66,2107.95)"><text x="1322.9px" y="339.083px" style="font-family:'MarcellusSC-Regular', 'Marcellus SC', sans-serif;font-size:111.111px;fill:#b3b3b3;stroke:#d9d9d9;stroke-width:1px;stroke-linejoin:round;stroke-miterlimit:2;">S<tspan x="1375.37px 1443.13px 1511.1px 1579.08px 1627.75px 1671.31px 1726.97px 1762.5px 1854.3px 1909.96px 1979.51px 2028.17px " y="339.083px 339.083px 339.083px 339.083px 339.083px 339.083px 339.083px 339.083px 339.083px 339.083px 339.083px 339.083px ">uggest Other</tspan></text><text x="1358.66px" y="505.749px" style="font-family:'MarcellusSC-Regular', 'Marcellus SC', sans-serif;font-size:111.111px;fill:#b3b3b3;stroke:#d9d9d9;stroke-width:1px;stroke-linejoin:round;stroke-miterlimit:2;">M<tspan x="1474px 1522.66px 1578.32px 1647.87px 1720.19px 1788.66px 1832.22px 1867.75px 1920.11px 1992.42px " y="505.749px 505.749px 505.749px 505.749px 505.749px 505.749px 505.749px 505.749px 505.749px 505.749px ">ethods For</tspan></text><text x="1529.03px" y="672.416px" style="font-family:'MarcellusSC-Regular', 'Marcellus SC', sans-serif;font-size:111.111px;fill:#b3b3b3;stroke:#d9d9d9;stroke-width:1px;stroke-linejoin:round;stroke-miterlimit:2;">F<tspan x="1582.2px 1649.96px 1705.62px 1773.38px 1831.05px " y="672.416px 672.416px 672.416px 672.416px 672.416px ">uture</tspan></text><text x="1366.96px" y="839.083px" style="font-family:'MarcellusSC-Regular', 'Marcellus SC', sans-serif;font-size:111.111px;fill:#b3b3b3;stroke:#d9d9d9;stroke-width:1px;stroke-linejoin:round;stroke-miterlimit:2;">D<tspan x="1448.5px 1497.16px 1554.94px 1603.6px 1649.72px 1722.03px 1773.25px 1867.59px 1916.25px 1986.13px " y="839.083px 839.083px 839.083px 839.083px 839.083px 839.083px 839.083px 839.083px 839.083px 839.083px ">evelopment</tspan></text></g><rect x="3394.15" y="2311.52" width="855.556" height="705.974" style="fill:none;stroke:#d9d9d9;stroke-width:6.67px;"/></g><g><text x="1242.34px" y="884.412px" style="font-family:'MarcellusSC-Regular', 'Marcellus SC', sans-serif;font-size:100px;fill:#231f20;">M<tspan x="1346.15px 1411.24px 1472.85px 1516.65px 1558.15px 1585.45px 1648.33px " y="884.412px 884.412px 884.412px 884.412px 884.412px 884.412px 884.412px ">odeling</tspan></text><rect x="1102.71" y="749.402" width="744.444" height="200" style="fill:none;stroke:#000;stroke-width:5.56px;"/></g><g><text x="1664.11px" y="1315.32px" style="font-family:'MarcellusSC-Regular', 'Marcellus SC', sans-serif;font-size:94.444px;fill:#231f20;">M<tspan x="1762.15px 1817.12px 1868.12px 1927.24px 1953.02px 2012.41px 2053.77px 2083.98px 2129.31px 2170.67px 2225.64px 2274.66px 2334.05px 2359.83px 2419.22px " y="1315.32px 1315.32px 1315.32px 1315.32px 1315.32px 1315.32px 1315.32px 1315.32px 1315.32px 1315.32px 1315.32px 1315.32px 1315.32px 1315.32px 1315.32px ">achine Learning</tspan></text><rect x="1614.06" y="1182.5" width="911.111" height="200" style="fill:none;stroke:#000;stroke-width:5.56px;"/></g><path d="M3282.15,949.168l0,849.809" style="fill:none;stroke:#231f20;stroke-width:11.11px;"/><g><text x="2243.2px" y="1748.28px" style="font-family:'Marcellus-Regular', 'Marcellus', sans-serif;font-size:88.889px;">G<tspan x="2310.95px 2360.91px 2413.16px 2463.12px 2499.01px 2522.23px 2568.89px 2597.31px 2677.65px 2725.39px 2761.28px 2807.94px 2860.2px 2883.41px 2935.67px " y="1748.28px 1748.28px 1748.28px 1748.28px 1748.28px 1748.28px 1748.28px 1748.28px 1748.28px 1748.28px 1748.28px 1748.28px 1748.28px 1748.28px 1748.28px ">enetic matching</tspan></text><rect x="2187.61" y="1615.84" width="855.556" height="200" style="fill:none;stroke:#000;stroke-width:5.56px;"/></g><g><text x="3499.84px" y="1826.06px" style="font-family:'Marcellus-Regular', 'Marcellus', sans-serif;font-size:88.889px;">E<tspan x="3545.2px 3593.46px 3641.2px 3687.86px 3723.75px 3752.17px 3832.51px 3880.25px 3916.14px 3962.8px 4015.06px 4038.28px 4090.53px " y="1826.06px 1826.06px 1826.06px 1826.06px 1826.06px 1826.06px 1826.06px 1826.06px 1826.06px 1826.06px 1826.06px 1826.06px 1826.06px ">xact matching</tspan></text><rect x="3393.36" y="1693.61" width="855.556" height="200" style="fill:none;stroke:#000;stroke-width:5.56px;"/></g><g><text x="1554px" y="1965.22px" style="font-family:'Marcellus-Regular', 'Marcellus', sans-serif;font-size:88.889px;fill:#231f20;">D<tspan x="1619.23px 1657.47px 1719.53px 1764.88px 1857.16px " y="1965.22px 1965.22px 1965.22px 1965.22px 1965.22px ">-AEMR</tspan></text><rect x="1509.61" y="1832.78" width="444.444" height="200" style="fill:none;stroke:#000;stroke-width:5.56px;"/></g><g><text x="2240.08px" y="2181.73px" style="font-family:'Marcellus-Regular', 'Marcellus', sans-serif;font-size:88.889px;fill:#231f20;">M<tspan x="2332.35px 2380.09px 2415.99px 2462.64px 2514.9px 2538.12px 2590.37px 2644.06px 2672.49px 2702.69px 2739.32px 2794.53px 2846.78px 2882.68px 2905.9px 2955.85px " y="2181.73px 2181.73px 2181.73px 2181.73px 2181.73px 2181.73px 2181.73px 2181.73px 2181.73px 2181.73px 2181.73px 2181.73px 2181.73px 2181.73px 2181.73px 2181.73px ">atching frontier</tspan></text><rect x="2187.61" y="2049.29" width="855.556" height="200" style="fill:none;stroke:#000;stroke-width:5.56px;"/></g><g><g transform="matrix(1,0,0,1,391.34,2269.87)"><text x="1338.37px" y="336.737px" style="font-family:'Marcellus-Regular', 'Marcellus', sans-serif;font-size:88.889px;fill:#231f20;">P<tspan x="1385.67px 1422.31px 1477.51px 1531.2px 1581.15px 1633.41px 1666.65px 1689.87px 1725.77px 1772.07px 1800.5px 1833.75px 1880.4px 1935.61px 1972.24px " y="336.737px 336.737px 336.737px 336.737px 336.737px 336.737px 336.737px 336.737px 336.737px 336.737px 336.737px 336.737px 336.737px 336.737px 336.737px ">ropensity score</tspan></text><text x="1370.27px" y="453.404px" style="font-family:'Marcellus-Regular', 'Marcellus', sans-serif;font-size:88.889px;fill:#231f20;">e<tspan x="1420.22px 1453.47px 1489.36px 1512.58px 1592.91px 1640.66px 1676.55px 1726.5px 1781.97px 1810.4px 1878.93px 1902.15px 1938.04px " y="453.404px 453.404px 453.404px 453.404px 453.404px 453.404px 453.404px 453.404px 453.404px 453.404px 453.404px 453.404px 453.404px ">stimated with</tspan></text><text x="1333.72px" y="570.07px" style="font-family:'Marcellus-Regular', 'Marcellus', sans-serif;font-size:88.889px;fill:#231f20;">ra<tspan x="1416.32px 1468.57px 1524.04px 1579.24px 1659.58px 1688.01px 1717.35px 1772.55px 1809.18px 1859.14px 1892.38px 1928.28px 1956.7px " y="570.07px 570.07px 570.07px 570.07px 570.07px 570.07px 570.07px 570.07px 570.07px 570.07px 570.07px 570.07px 570.07px ">ndom forest &amp;</tspan></text><text x="1354.64px" y="686.737px" style="font-family:'Marcellus-Regular', 'Marcellus', sans-serif;font-size:88.889px;fill:#231f20;">c<tspan x="1401.3px 1437.93px 1493.14px 1526.38px 1559.63px 1597.86px 1641.96px 1689.7px 1712.92px 1736.14px 1791.6px 1839.35px 1875.24px 1898.46px 1953.66px " y="686.737px 686.737px 686.737px 686.737px 686.737px 686.737px 686.737px 686.737px 686.737px 686.737px 686.737px 686.737px 686.737px 686.737px 686.737px ">ross-validation</tspan></text></g><rect x="1642.95" y="2482.5" width="855.556" height="533.333" style="fill:none;stroke:#000;stroke-width:5.56px;"/></g><g><text x="506.628px" y="1315.57px" style="font-family:'MarcellusSC-Regular', 'Marcellus SC', sans-serif;font-size:94.444px;fill:#231f20;">D<tspan x="575.938px 601.715px 638.744px 683.52px 738.488px 797.882px 848.884px 890.248px 920.452px 1018.49px 1079.96px 1138.16px 1179.52px 1218.72px " y="1315.57px 1315.57px 1315.57px 1315.57px 1315.57px 1315.57px 1315.57px 1315.57px 1315.57px 1315.57px 1315.57px 1315.57px 1315.57px 1315.57px ">istance Models</tspan></text><rect x="424.687" y="1182.5" width="911.111" height="200" style="fill:none;stroke:#000;stroke-width:5.56px;"/></g><g><g transform="matrix(1,0,0,1,-1097.92,1899.87)"><text x="1368.3px" y="340.071px" style="font-family:'Marcellus-Regular', 'Marcellus', sans-serif;font-size:88.889px;fill:#231f20;">P<tspan x="1415.61px 1452.24px 1507.45px 1561.13px 1611.09px 1663.35px 1696.59px 1719.81px 1755.7px 1802.01px 1830.44px 1863.68px 1910.34px 1965.55px 2002.17px " y="340.071px 340.071px 340.071px 340.071px 340.071px 340.071px 340.071px 340.071px 340.071px 340.071px 340.071px 340.071px 340.071px 340.071px 340.071px ">ropensity score</tspan></text><text x="1340.01px" y="456.738px" style="font-family:'Marcellus-Regular', 'Marcellus', sans-serif;font-size:88.889px;fill:#231f20;">e<tspan x="1389.96px 1423.2px 1459.1px 1482.32px 1562.65px 1610.39px 1646.29px 1696.24px 1751.71px 1780.14px 1848.67px 1889.2px 1912.42px 1967.63px 2021.32px 2044.54px " y="456.738px 456.738px 456.738px 456.738px 456.738px 456.738px 456.738px 456.738px 456.738px 456.738px 456.738px 456.738px 456.738px 456.738px 456.738px 456.738px ">stimated w/logit</tspan></text></g><rect x="194.742" y="2126.95" width="833.333" height="277.778" style="fill:none;stroke:#000;stroke-width:5.56px;"/></g><g><rect x="363.01" y="2632.5" width="666.667" height="277.778" style="fill:none;stroke:#000;stroke-width:5.56px;"/><g transform="matrix(1,0,0,1,-884.832,2374.28)"><text x="1317.77px" y="371.223px" style="font-family:'Marcellus-Regular', 'Marcellus', sans-serif;font-size:88.889px;fill:#231f20;">M<tspan x="1410.05px 1457.79px 1510.04px 1557.78px 1581px 1628.74px 1681px 1736.2px 1789.89px 1813.11px " y="371.223px 371.223px 371.223px 371.223px 371.223px 371.223px 371.223px 371.223px 371.223px 371.223px ">ahalanobis</tspan></text><text x="1409.85px" y="487.89px" style="font-family:'Marcellus-Regular', 'Marcellus', sans-serif;font-size:88.889px;fill:#231f20;">d<tspan x="1465.32px 1488.54px 1521.78px 1557.67px 1605.41px 1657.67px 1704.33px " y="487.89px 487.89px 487.89px 487.89px 487.89px 487.89px 487.89px ">istance</tspan></text></g></g><g><g transform="matrix(1,0,0,1,-828.952,1354.55)"><text x="1336.99px" y="374.282px" style="font-family:'Marcellus-Regular', 'Marcellus', sans-serif;font-size:88.889px;fill:#231f20;">N<tspan x="1404.43px 1454.39px 1502.13px 1538.76px 1588.71px 1621.96px 1657.85px 1686.28px 1738.53px 1788.49px 1811.71px 1865.39px 1917.65px 1971.34px 2026.54px 2063.17px " y="374.282px 374.282px 374.282px 374.282px 374.282px 374.282px 374.282px 374.282px 374.282px 374.282px 374.282px 374.282px 374.282px 374.282px 374.282px 374.282px ">earest neighbor,</tspan></text><text x="1330.09px" y="490.949px" style="font-family:'Marcellus-Regular', 'Marcellus', sans-serif;font-size:88.889px;fill:#231f20;">g<tspan x="1383.77px 1420.4px 1470.36px 1520.31px 1575.78px 1622.09px 1650.52px 1705.72px 1742.35px 1770.78px 1825.99px 1879.67px 1915.57px 1938.79px 2019.12px 2066.86px " y="490.949px 490.949px 490.949px 490.949px 490.949px 490.949px 490.949px 490.949px 490.949px 490.949px 490.949px 490.949px 490.949px 490.949px 490.949px 490.949px ">reedy or optimal</tspan></text></g><rect x="424.687" y="1615.84" width="911.111" height="277.778" style="fill:none;stroke:#000;stroke-width:5.56px;"/></g><g><rect x="3393.36" y="1173.91" width="833.333" height="277.778" style="fill:none;stroke:#000;stroke-width:5.56px;"/><g transform="matrix(1,0,0,1,2172.1,923.638)"><text x="1417.62px" y="363.269px" style="font-family:'Marcellus-Regular', 'Marcellus', sans-serif;font-size:88.889px;fill:#231f20;">C<tspan x="1479.56px 1534.76px 1582.5px 1619.13px 1652.38px 1702.33px 1754.59px 1804.54px " y="363.269px 363.269px 363.269px 363.269px 363.269px 363.269px 363.269px 363.269px ">oarsened</tspan></text><text x="1314.33px" y="479.935px" style="font-family:'Marcellus-Regular', 'Marcellus', sans-serif;font-size:88.889px;fill:#231f20;">e<tspan x="1364.28px 1412.55px 1460.29px 1506.94px 1542.83px 1571.26px 1651.6px 1699.34px 1735.23px 1781.89px 1834.14px 1857.36px 1909.62px " y="479.935px 479.935px 479.935px 479.935px 479.935px 479.935px 479.935px 479.935px 479.935px 479.935px 479.935px 479.935px 479.935px ">xact matching</tspan></text></g></g><g><text x="2950.13px" y="884.178px" style="font-family:'MarcellusSC-Regular', 'Marcellus SC', sans-serif;font-size:100px;fill:#231f20;">S<tspan x="2997.15px 3047.24px 3099.15px 3154.66px 3204.76px 3232.05px 3298.75px 3353.73px 3409.24px 3459.34px 3486.63px 3551.72px " y="884.178px 884.178px 884.178px 884.178px 884.178px 884.178px 884.178px 884.178px 884.178px 884.178px 884.178px 884.178px ">tratiﬁcation</tspan></text><rect x="2909.93" y="749.168" width="744.444" height="200" style="fill:none;stroke:#000;stroke-width:5.56px;"/></g><path d="M880.243,1382.5l-0,233.333" style="fill:none;stroke:#231f20;stroke-width:11.11px;"/><path d="M1476.6,749.402l-0,-122.456l1811.11,-0l-0,122.456" style="fill:none;stroke:#231f20;stroke-width:11.11px;"/><path d="M880.243,1182.5l-0,-122.457l1189.37,0l0,122.457" style="fill:none;stroke:#231f20;stroke-width:11.11px;"/><path d="M2382.15,515.835l0,111.111" style="fill:none;stroke:#231f20;stroke-width:11.11px;"/><path d="M1474.93,949.402l0,111.111" style="fill:none;stroke:#231f20;stroke-width:11.11px;"/><path d="M1334.8,1893.17l305.481,589.333" style="fill:none;stroke:#231f20;stroke-width:6.67px;stroke-dasharray:20,13.33,0,0;"/><path d="M1138.3,1893.61l0.184,883.333" style="fill:none;stroke:#231f20;stroke-width:11.11px;"/><path d="M2070.56,1382.5l0.229,1100" style="fill:none;stroke:#231f20;stroke-width:11.11px;"/><path d="M1029.68,2771.39l111.994,0" style="fill:none;stroke:#231f20;stroke-width:11.11px;"/><path d="M1028.08,2265.84l111.994,-0" style="fill:none;stroke:#231f20;stroke-width:11.11px;"/><path d="M1954.06,1932.78l111.994,-0" style="fill:none;stroke:#231f20;stroke-width:11.11px;"/><path d="M2075.62,2149.29l111.994,-0" style="fill:none;stroke:#231f20;stroke-width:11.11px;"/><path d="M2075.62,1715.84l111.994,-0" style="fill:none;stroke:#231f20;stroke-width:11.11px;"/><path d="M3281.37,1312.8l111.995,-0" style="fill:none;stroke:#231f20;stroke-width:11.11px;"/><path d="M3282.15,1793.61l111.995,-0" style="fill:none;stroke:#231f20;stroke-width:11.11px;"/></svg>