<?xml version="1.0" encoding="UTF-8" standalone="no"?>
<!DOCTYPE svg PUBLIC "-//W3C//DTD SVG 1.1//EN" "http://www.w3.org/Graphics/SVG/1.1/DTD/svg11.dtd">
<svg xmlns="http://www.w3.org/2000/svg" xmlns:dc="http://purl.org/dc/elements/1.1/" version="1.1" xmlns:xl="http://www.w3.org/1999/xlink" viewBox="0 0 790 560" width="790" height="560">
  <defs/>
  <g id="Canvas_1" stroke="none" stroke-opacity="1" stroke-dasharray="none" fill="none" fill-opacity="1">
    <title>Canvas 1</title>
    <rect fill="white" x="0" y="0" width="790" height="560"/>
    <g id="Canvas_1_Layer_1">
      <title>Layer 1</title>
      <g id="Graphic_7">
        <rect x="380" y="10" width="180" height="40" fill="#fff8dc"/>
        <rect x="380" y="10" width="180" height="40" stroke="#666" stroke-linecap="round" stroke-linejoin="round" stroke-width="1"/>
        <text transform="translate(385 20.5)" fill="black">
          <tspan font-family="AppleGothic" font-size="16" fill="black" x="17.784" y="14">Matching Methods</tspan>
        </text>
      </g>
      <g id="Graphic_8">
        <rect x="205" y="80" width="160" height="40" fill="#fff8dc"/>
        <rect x="205" y="80" width="160" height="40" stroke="#666" stroke-linecap="round" stroke-linejoin="round" stroke-width="1"/>
        <text transform="translate(210 90.5)" fill="black">
          <tspan font-family="AppleGothic" font-size="16" fill="black" x="42.76" y="14">Modeling</tspan>
        </text>
      </g>
      <g id="Graphic_9">
        <rect x="575" y="80" width="160" height="40" fill="#fff8dc"/>
        <rect x="575" y="80" width="160" height="40" stroke="#666" stroke-linecap="round" stroke-linejoin="round" stroke-width="1"/>
        <text transform="translate(580 90.5)" fill="black">
          <tspan font-family="AppleGothic" font-size="16" fill="black" x="30.056" y="14">Stratification</tspan>
        </text>
      </g>
      <g id="Graphic_10">
        <rect x="620" y="160" width="160" height="60" fill="#fff8dc"/>
        <rect x="620" y="160" width="160" height="60" stroke="#666" stroke-linecap="round" stroke-linejoin="round" stroke-width="1"/>
        <text transform="translate(625 171)" fill="black">
          <tspan font-family="AppleGothic" font-size="16" fill="black" x="35.976" y="14">Coarsened</tspan>
          <tspan font-family="AppleGothic" font-size="16" fill="black" x="18.936" y="33">Exact Matching</tspan>
        </text>
      </g>
      <g id="Graphic_11">
        <rect x="620" y="260" width="160" height="40" fill="#fff8dc"/>
        <rect x="620" y="260" width="160" height="40" stroke="#666" stroke-linecap="round" stroke-linejoin="round" stroke-width="1"/>
        <text transform="translate(625 270.5)" fill="black">
          <tspan font-family="AppleGothic" font-size="16" fill="black" x="18.936" y="14">Exact Matching</tspan>
        </text>
      </g>
      <g id="Graphic_12">
        <rect x="90" y="160" width="180" height="40" fill="#fff8dc"/>
        <rect x="90" y="160" width="180" height="40" stroke="#666" stroke-linecap="round" stroke-linejoin="round" stroke-width="1"/>
        <text transform="translate(95 170.5)" fill="black">
          <tspan font-family="AppleGothic" font-size="16" fill="black" x="19.208" y="14">Distance Modeling</tspan>
        </text>
      </g>
      <g id="Graphic_13">
        <rect x="300" y="160" width="180" height="40" fill="#fff8dc"/>
        <rect x="300" y="160" width="180" height="40" stroke="#666" stroke-linecap="round" stroke-linejoin="round" stroke-width="1"/>
        <text transform="translate(305 170.5)" fill="black">
          <tspan font-family="AppleGothic" font-size="16" fill="black" x="21.312" y="14">Machine Learning</tspan>
        </text>
      </g>
      <g id="Graphic_14">
        <rect x="90" y="240" width="180" height="60" fill="#fff8dc"/>
        <rect x="90" y="240" width="180" height="60" stroke="#666" stroke-linecap="round" stroke-linejoin="round" stroke-width="1"/>
        <text transform="translate(95 251)" fill="black">
          <tspan font-family="AppleGothic" font-size="16" fill="black" x="21.688" y="14">Nearest Neighbor</tspan>
          <tspan font-family="AppleGothic" font-size="16" fill="black" x="18.424" y="33">Greedy or Optimal</tspan>
        </text>
      </g>
      <g id="Graphic_15">
        <rect x="10" y="340" width="180" height="60" fill="#fff8dc"/>
        <rect x="10" y="340" width="180" height="60" stroke="#666" stroke-linecap="round" stroke-linejoin="round" stroke-width="1"/>
        <text transform="translate(15 351)" fill="black">
          <tspan font-family="AppleGothic" font-size="16" fill="black" x="23.328" y="14">Propensity Score</tspan>
          <tspan font-family="AppleGothic" font-size="16" fill="black" x="11.712" y="33">Estimated with Logit</tspan>
        </text>
      </g>
      <g id="Graphic_17">
        <rect x="10" y="440" width="180" height="40" fill="#fff8dc"/>
        <rect x="10" y="440" width="180" height="40" stroke="#666" stroke-linecap="round" stroke-linejoin="round" stroke-width="1"/>
        <text transform="translate(15 450.5)" fill="black">
          <tspan font-family="AppleGothic" font-size="16" fill="black" x="6.216" y="14">Mahalanobis Distance</tspan>
        </text>
      </g>
      <g id="Graphic_18">
        <rect x="410" y="240" width="160" height="40" fill="#fff8dc"/>
        <rect x="410" y="240" width="160" height="40" stroke="#666" stroke-linecap="round" stroke-linejoin="round" stroke-width="1"/>
        <text transform="translate(415 250.5)" fill="black">
          <tspan font-family="AppleGothic" font-size="16" fill="black" x="11.96" y="14">Genetic Matching</tspan>
        </text>
      </g>
      <g id="Graphic_19">
        <rect x="410" y="360" width="160" height="40" fill="#fff8dc"/>
        <rect x="410" y="360" width="160" height="40" stroke="#666" stroke-linecap="round" stroke-linejoin="round" stroke-width="1"/>
        <text transform="translate(415 370.5)" fill="black">
          <tspan font-family="AppleGothic" font-size="16" fill="black" x="11.504" y="14">Matching Frontier</tspan>
        </text>
      </g>
      <g id="Graphic_20">
        <rect x="600" y="360" width="180" height="190" fill="white" fill-opacity=".047058824"/>
        <rect x="600" y="360" width="180" height="190" stroke="#a5a5a5" stroke-linecap="round" stroke-linejoin="round" stroke-width="1"/>
        <text transform="translate(605 417)" fill="#666">
          <tspan font-family="AppleGothic" font-size="16" fill="#666" x="30.512" y="14">Please suggest </tspan>
          <tspan font-family="AppleGothic" font-size="16" fill="#666" x="16.04" y="33">additional matching </tspan>
          <tspan font-family="AppleGothic" font-size="16" fill="#666" x="15.616" y="52">methods if you see </tspan>
          <tspan font-family="AppleGothic" font-size="16" fill="#666" x="9.688" y="71">any major omissions </tspan>
        </text>
      </g>
      <g id="Graphic_21">
        <rect x="290" y="300" width="80" height="40" fill="#fff8dc"/>
        <rect x="290" y="300" width="80" height="40" stroke="#666" stroke-linecap="round" stroke-linejoin="round" stroke-width="1"/>
        <text transform="translate(295 310.5)" fill="black">
          <tspan font-family="AppleGothic" font-size="16" fill="black" x="2.672" y="14">D-AEMR</tspan>
        </text>
      </g>
      <g id="Graphic_22">
        <rect x="300" y="440" width="180" height="110" fill="#fff8dc"/>
        <rect x="300" y="440" width="180" height="110" stroke="#666" stroke-linecap="round" stroke-linejoin="round" stroke-width="1"/>
        <text transform="translate(305 457)" fill="black">
          <tspan font-family="AppleGothic" font-size="16" fill="black" x="23.328" y="14">Propensity Score</tspan>
          <tspan font-family="AppleGothic" font-size="16" fill="black" x="31.856" y="33">Estimated with</tspan>
          <tspan font-family="AppleGothic" font-size="16" fill="black" x="19.888" y="52">Random Forest &amp; </tspan>
          <tspan font-family="AppleGothic" font-size="16" fill="black" x="26.656" y="71">Cross-validation</tspan>
        </text>
      </g>
      <g id="Line_23">
        <line x1="417.14286" y1="50" x2="337.85714" y2="80" stroke="#666" stroke-linecap="round" stroke-linejoin="round" stroke-width="1"/>
      </g>
      <g id="Line_24">
        <line x1="258.75" y1="120" x2="206.25" y2="160" stroke="#666" stroke-linecap="round" stroke-linejoin="round" stroke-width="1"/>
      </g>
      <g id="Line_25">
        <line x1="311.25" y1="120" x2="363.75" y2="160" stroke="#666" stroke-linecap="round" stroke-linejoin="round" stroke-width="1"/>
      </g>
      <g id="Line_26">
        <line x1="180" y1="200" x2="180" y2="240" stroke="#666" stroke-linecap="round" stroke-linejoin="round" stroke-width="1"/>
      </g>
      <g id="Line_27">
        <path d="M 210 300 L 210 310 L 209.96655 369.93207 L 200 370 L 190 370" stroke="#666" stroke-linecap="round" stroke-linejoin="round" stroke-width="1"/>
      </g>
      <g id="Line_30">
        <line x1="390" y1="200" x2="390" y2="440" stroke="#666" stroke-linecap="round" stroke-linejoin="round" stroke-width="1"/>
      </g>
      <g id="Line_33">
        <line x1="522.66667" y1="50" x2="601.6667" y2="80" stroke="#666" stroke-linecap="round" stroke-linejoin="round" stroke-width="1"/>
      </g>
      <g id="Line_34">
        <path d="M 601.6667 120 L 601.6667 130 L 601.7922 189.97026 L 610 190 L 620 190" stroke="#666" stroke-linecap="round" stroke-linejoin="round" stroke-width="1"/>
      </g>
      <g id="Line_36">
        <path d="M 601.6667 120 L 601.6667 130 L 601.93426 279.89046 L 610 280 L 620 280" stroke="#666" stroke-linecap="round" stroke-linejoin="round" stroke-width="1"/>
      </g>
      <g id="Line_37">
        <path d="M 210 300 L 210 310 L 210.2715 459.91657 L 200 460 L 190 460" stroke="#666" stroke-linecap="round" stroke-linejoin="round" stroke-width="1"/>
      </g>
      <g id="Line_39">
        <line x1="240" y1="300" x2="347.6923" y2="440" stroke="#666" stroke-linecap="round" stroke-linejoin="round" stroke-dasharray="4.0,4.0" stroke-width="1"/>
      </g>
      <g id="Line_40">
        <path d="M 390 200 L 390 210 L 390.0766 260.0072 L 400 260 L 410 260" stroke="#666" stroke-linecap="round" stroke-linejoin="round" stroke-width="1"/>
      </g>
      <g id="Line_41">
        <path d="M 390 200 L 390 210 L 389.8094 319.97982 L 380 320 L 370 320" stroke="#666" stroke-linecap="round" stroke-linejoin="round" stroke-width="1"/>
      </g>
      <g id="Line_42">
        <path d="M 390 200 L 390 210 L 390.0899 379.98293 L 400 380 L 410 380" stroke="#666" stroke-linecap="round" stroke-linejoin="round" stroke-width="1"/>
      </g>
    </g>
  </g>
</svg>
